<svg width="36" height="36" viewBox="0 0 36 36" fill="none" xmlns="http://www.w3.org/2000/svg">
<path d="M18 0.5C8.34 0.5 0.5 8.34 0.5 18C0.5 27.66 8.34 35.5 18 35.5C27.66 35.5 35.5 27.66 35.5 18C35.5 8.34 27.66 0.5 18 0.5ZM26.12 12.4C25.8575 15.165 24.72 21.885 24.1425 24.9825C23.8975 26.295 23.4075 26.7325 22.9525 26.785C21.9375 26.8725 21.1675 26.12 20.1875 25.4725C18.6475 24.4575 17.7725 23.8275 16.285 22.8475C14.5525 21.71 15.6725 21.08 16.67 20.065C16.9325 19.8025 21.4125 15.725 21.5 15.3575C21.5122 15.3018 21.5105 15.2441 21.4953 15.1892C21.48 15.1343 21.4516 15.0839 21.4125 15.0425C21.3075 14.955 21.1675 14.99 21.045 15.0075C20.8875 15.0425 18.4375 16.67 13.66 19.89C12.96 20.3625 12.33 20.6075 11.77 20.59C11.14 20.5725 9.95 20.24 9.0575 19.9425C7.955 19.5925 7.0975 19.4 7.1675 18.7875C7.2025 18.4725 7.64 18.1575 8.4625 17.825C13.5725 15.6025 16.9675 14.1325 18.665 13.4325C23.53 11.4025 24.5275 11.0525 25.1925 11.0525C25.3325 11.0525 25.665 11.0875 25.875 11.2625C26.05 11.4025 26.1025 11.595 26.12 11.735C26.1025 11.84 26.1375 12.155 26.12 12.4Z" fill="#2B3F1C"/>
</svg>
